<?xml version="1.0" encoding="utf-8" standalone="no"?>
<!DOCTYPE svg PUBLIC "-//W3C//DTD SVG 1.1//EN"
  "http://www.w3.org/Graphics/SVG/1.1/DTD/svg11.dtd">
<svg xmlns:xlink="http://www.w3.org/1999/xlink" width="882.036532pt" height="638.129844pt" viewBox="0 0 882.036532 638.129844" xmlns="http://www.w3.org/2000/svg" version="1.1">
 <metadata>
  <rdf:RDF xmlns:dc="http://purl.org/dc/elements/1.1/" xmlns:cc="http://creativecommons.org/ns#" xmlns:rdf="http://www.w3.org/1999/02/22-rdf-syntax-ns#">
   <cc:Work>
    <dc:type rdf:resource="http://purl.org/dc/dcmitype/StillImage"/>
    <dc:date>2025-02-20T14:22:58.032708</dc:date>
    <dc:format>image/svg+xml</dc:format>
    <dc:creator>
     <cc:Agent>
      <dc:title>Matplotlib v3.10.0, https://matplotlib.org/</dc:title>
     </cc:Agent>
    </dc:creator>
   </cc:Work>
  </rdf:RDF>
 </metadata>
 <defs>
  <style type="text/css">*{stroke-linejoin: round; stroke-linecap: butt}</style>
 </defs>
 <g id="figure_1">
  <g id="patch_1">
   <path d="M 0 638.129844 
L 882.036532 638.129844 
L 882.036532 0 
L 0 0 
z
" style="fill: #ffffff"/>
  </g>
  <g id="axes_1">
   <g id="patch_2">
    <path d="M 713.516532 334.84 
C 713.516532 298.43843 706.346217 262.390818 692.415939 228.760153 
C 678.485661 195.129487 658.066329 164.569798 632.326532 138.83 
C 606.586735 113.090203 576.027046 92.670872 542.39638 78.740594 
C 508.765714 64.810316 472.718103 57.64 436.316532 57.64 
C 399.914962 57.64 363.867351 64.810316 330.236685 78.740594 
C 296.606019 92.670872 266.04633 113.090203 240.306533 138.83 
C 214.566735 164.569798 194.147404 195.129487 180.217126 228.760153 
C 166.286848 262.390818 159.116532 298.43843 159.116532 334.84 
C 159.116532 371.24157 166.286848 407.289182 180.217126 440.919847 
C 194.147404 474.550513 214.566735 505.110202 240.306533 530.85 
C 266.04633 556.589797 296.606019 577.009128 330.236685 590.939406 
C 363.867351 604.869684 399.914962 612.04 436.316532 612.04 
C 472.718103 612.04 508.765714 604.869684 542.39638 590.939406 
C 576.027046 577.009128 606.586735 556.589797 632.326532 530.85 
C 658.066329 505.110202 678.485661 474.550513 692.415939 440.919847 
C 706.346217 407.289182 713.516532 371.24157 713.516532 334.84 
M 436.316532 334.84 
C 436.316532 334.84 436.316532 334.84 436.316532 334.84 
C 436.316532 334.84 436.316532 334.84 436.316532 334.84 
C 436.316532 334.84 436.316532 334.84 436.316532 334.84 
C 436.316532 334.84 436.316532 334.84 436.316532 334.84 
C 436.316532 334.84 436.316532 334.84 436.316532 334.84 
C 436.316532 334.84 436.316532 334.84 436.316532 334.84 
C 436.316532 334.84 436.316532 334.84 436.316532 334.84 
C 436.316532 334.84 436.316532 334.84 436.316532 334.84 
C 436.316532 334.84 436.316532 334.84 436.316532 334.84 
C 436.316532 334.84 436.316532 334.84 436.316532 334.84 
C 436.316532 334.84 436.316532 334.84 436.316532 334.84 
C 436.316532 334.84 436.316532 334.84 436.316532 334.84 
C 436.316532 334.84 436.316532 334.84 436.316532 334.84 
C 436.316532 334.84 436.316532 334.84 436.316532 334.84 
C 436.316532 334.84 436.316532 334.84 436.316532 334.84 
C 436.316532 334.84 436.316532 334.84 436.316532 334.84 
z
" style="fill: #ffffff"/>
   </g>
   <g id="patch_3">
    <path d="M 533.475052 334.84 
L 585.260847 273.145245 
L 586.862221 184.294311 
L 493.827419 195.996439 
L 436.316532 225.133686 
L 409.018183 268.935954 
L 391.131725 289.655193 
L 336.688008 293.572514 
L 423.885005 334.84 
L 195.126631 434.744128 
L 293.191793 477.96474 
L 366.065172 504.441787 
L 436.316532 445.502273 
L 478.132309 435.792214 
L 551.546167 450.069635 
L 458.62006 344.078423 
z
" clip-path="url(#pdb5e3328a3)" style="fill: #1f77b4; opacity: 0.25"/>
   </g>
   <g id="matplotlib.axis_1">
    <g id="xtick_1">
     <g id="line2d_1">
      <path d="M 436.316532 334.84 
L 713.516532 334.84 
" clip-path="url(#pdb5e3328a3)" style="fill: none; stroke: #b0b0b0; stroke-width: 0.8; stroke-linecap: square"/>
     </g>
     <g id="text_1">
      <!-- LCA_ACIDIFICATION -->
      <g transform="translate(629.711845 337.372031) scale(0.1 -0.1)">
       <defs>
        <path id="DejaVuSans-4c" d="M 628 4666 
L 1259 4666 
L 1259 531 
L 3531 531 
L 3531 0 
L 628 0 
L 628 4666 
z
" transform="scale(0.015625)"/>
        <path id="DejaVuSans-43" d="M 4122 4306 
L 4122 3641 
Q 3803 3938 3442 4084 
Q 3081 4231 2675 4231 
Q 1875 4231 1450 3742 
Q 1025 3253 1025 2328 
Q 1025 1406 1450 917 
Q 1875 428 2675 428 
Q 3081 428 3442 575 
Q 3803 722 4122 1019 
L 4122 359 
Q 3791 134 3420 21 
Q 3050 -91 2638 -91 
Q 1578 -91 968 557 
Q 359 1206 359 2328 
Q 359 3453 968 4101 
Q 1578 4750 2638 4750 
Q 3056 4750 3426 4639 
Q 3797 4528 4122 4306 
z
" transform="scale(0.015625)"/>
        <path id="DejaVuSans-41" d="M 2188 4044 
L 1331 1722 
L 3047 1722 
L 2188 4044 
z
M 1831 4666 
L 2547 4666 
L 4325 0 
L 3669 0 
L 3244 1197 
L 1141 1197 
L 716 0 
L 50 0 
L 1831 4666 
z
" transform="scale(0.015625)"/>
        <path id="DejaVuSans-5f" d="M 3263 -1063 
L 3263 -1509 
L -63 -1509 
L -63 -1063 
L 3263 -1063 
z
" transform="scale(0.015625)"/>
        <path id="DejaVuSans-49" d="M 628 4666 
L 1259 4666 
L 1259 0 
L 628 0 
L 628 4666 
z
" transform="scale(0.015625)"/>
        <path id="DejaVuSans-44" d="M 1259 4147 
L 1259 519 
L 2022 519 
Q 2988 519 3436 956 
Q 3884 1394 3884 2338 
Q 3884 3275 3436 3711 
Q 2988 4147 2022 4147 
L 1259 4147 
z
M 628 4666 
L 1925 4666 
Q 3281 4666 3915 4102 
Q 4550 3538 4550 2338 
Q 4550 1131 3912 565 
Q 3275 0 1925 0 
L 628 0 
L 628 4666 
z
" transform="scale(0.015625)"/>
        <path id="DejaVuSans-46" d="M 628 4666 
L 3309 4666 
L 3309 4134 
L 1259 4134 
L 1259 2759 
L 3109 2759 
L 3109 2228 
L 1259 2228 
L 1259 0 
L 628 0 
L 628 4666 
z
" transform="scale(0.015625)"/>
        <path id="DejaVuSans-54" d="M -19 4666 
L 3928 4666 
L 3928 4134 
L 2272 4134 
L 2272 0 
L 1638 0 
L 1638 4134 
L -19 4134 
L -19 4666 
z
" transform="scale(0.015625)"/>
        <path id="DejaVuSans-4f" d="M 2522 4238 
Q 1834 4238 1429 3725 
Q 1025 3213 1025 2328 
Q 1025 1447 1429 934 
Q 1834 422 2522 422 
Q 3209 422 3611 934 
Q 4013 1447 4013 2328 
Q 4013 3213 3611 3725 
Q 3209 4238 2522 4238 
z
M 2522 4750 
Q 3503 4750 4090 4092 
Q 4678 3434 4678 2328 
Q 4678 1225 4090 567 
Q 3503 -91 2522 -91 
Q 1538 -91 948 565 
Q 359 1222 359 2328 
Q 359 3434 948 4092 
Q 1538 4750 2522 4750 
z
" transform="scale(0.015625)"/>
        <path id="DejaVuSans-4e" d="M 628 4666 
L 1478 4666 
L 3547 763 
L 3547 4666 
L 4159 4666 
L 4159 0 
L 3309 0 
L 1241 3903 
L 1241 0 
L 628 0 
L 628 4666 
z
" transform="scale(0.015625)"/>
       </defs>
       <use xlink:href="#DejaVuSans-4c"/>
       <use xlink:href="#DejaVuSans-43" transform="translate(55.712891 0)"/>
       <use xlink:href="#DejaVuSans-41" transform="translate(125.537109 0)"/>
       <use xlink:href="#DejaVuSans-5f" transform="translate(193.945312 0)"/>
       <use xlink:href="#DejaVuSans-41" transform="translate(243.945312 0)"/>
       <use xlink:href="#DejaVuSans-43" transform="translate(310.603516 0)"/>
       <use xlink:href="#DejaVuSans-49" transform="translate(380.427734 0)"/>
       <use xlink:href="#DejaVuSans-44" transform="translate(409.919922 0)"/>
       <use xlink:href="#DejaVuSans-49" transform="translate(486.921875 0)"/>
       <use xlink:href="#DejaVuSans-46" transform="translate(516.414062 0)"/>
       <use xlink:href="#DejaVuSans-49" transform="translate(573.933594 0)"/>
       <use xlink:href="#DejaVuSans-43" transform="translate(603.425781 0)"/>
       <use xlink:href="#DejaVuSans-41" transform="translate(673.25 0)"/>
       <use xlink:href="#DejaVuSans-54" transform="translate(733.908203 0)"/>
       <use xlink:href="#DejaVuSans-49" transform="translate(794.992188 0)"/>
       <use xlink:href="#DejaVuSans-4f" transform="translate(824.484375 0)"/>
       <use xlink:href="#DejaVuSans-4e" transform="translate(903.195312 0)"/>
      </g>
     </g>
    </g>
    <g id="xtick_2">
     <g id="line2d_2">
      <path d="M 436.316532 334.84 
L 692.415939 228.760153 
" clip-path="url(#pdb5e3328a3)" style="fill: none; stroke: #b0b0b0; stroke-width: 0.8; stroke-linecap: square"/>
     </g>
     <g id="text_2">
      <!-- LCA_CO2 -->
      <g transform="translate(659.737752 225.934616) scale(0.1 -0.1)">
       <defs>
        <path id="DejaVuSans-32" d="M 1228 531 
L 3431 531 
L 3431 0 
L 469 0 
L 469 531 
Q 828 903 1448 1529 
Q 2069 2156 2228 2338 
Q 2531 2678 2651 2914 
Q 2772 3150 2772 3378 
Q 2772 3750 2511 3984 
Q 2250 4219 1831 4219 
Q 1534 4219 1204 4116 
Q 875 4013 500 3803 
L 500 4441 
Q 881 4594 1212 4672 
Q 1544 4750 1819 4750 
Q 2544 4750 2975 4387 
Q 3406 4025 3406 3419 
Q 3406 3131 3298 2873 
Q 3191 2616 2906 2266 
Q 2828 2175 2409 1742 
Q 1991 1309 1228 531 
z
" transform="scale(0.015625)"/>
       </defs>
       <use xlink:href="#DejaVuSans-4c"/>
       <use xlink:href="#DejaVuSans-43" transform="translate(55.712891 0)"/>
       <use xlink:href="#DejaVuSans-41" transform="translate(125.537109 0)"/>
       <use xlink:href="#DejaVuSans-5f" transform="translate(193.945312 0)"/>
       <use xlink:href="#DejaVuSans-43" transform="translate(243.945312 0)"/>
       <use xlink:href="#DejaVuSans-4f" transform="translate(313.769531 0)"/>
       <use xlink:href="#DejaVuSans-32" transform="translate(392.480469 0)"/>
      </g>
     </g>
    </g>
    <g id="xtick_3">
     <g id="line2d_3">
      <path d="M 436.316532 334.84 
L 632.326532 138.83 
" clip-path="url(#pdb5e3328a3)" style="fill: none; stroke: #b0b0b0; stroke-width: 0.8; stroke-linecap: square"/>
     </g>
     <g id="text_3">
      <!-- LCA_ECOTOXICITY -->
      <g transform="translate(551.366652 131.462537) scale(0.1 -0.1)">
       <defs>
        <path id="DejaVuSans-45" d="M 628 4666 
L 3578 4666 
L 3578 4134 
L 1259 4134 
L 1259 2753 
L 3481 2753 
L 3481 2222 
L 1259 2222 
L 1259 531 
L 3634 531 
L 3634 0 
L 628 0 
L 628 4666 
z
" transform="scale(0.015625)"/>
        <path id="DejaVuSans-58" d="M 403 4666 
L 1081 4666 
L 2241 2931 
L 3406 4666 
L 4084 4666 
L 2584 2425 
L 4184 0 
L 3506 0 
L 2194 1984 
L 872 0 
L 191 0 
L 1856 2491 
L 403 4666 
z
" transform="scale(0.015625)"/>
        <path id="DejaVuSans-59" d="M -13 4666 
L 666 4666 
L 1959 2747 
L 3244 4666 
L 3922 4666 
L 2272 2222 
L 2272 0 
L 1638 0 
L 1638 2222 
L -13 4666 
z
" transform="scale(0.015625)"/>
       </defs>
       <use xlink:href="#DejaVuSans-4c"/>
       <use xlink:href="#DejaVuSans-43" transform="translate(55.712891 0)"/>
       <use xlink:href="#DejaVuSans-41" transform="translate(125.537109 0)"/>
       <use xlink:href="#DejaVuSans-5f" transform="translate(193.945312 0)"/>
       <use xlink:href="#DejaVuSans-45" transform="translate(243.945312 0)"/>
       <use xlink:href="#DejaVuSans-43" transform="translate(307.128906 0)"/>
       <use xlink:href="#DejaVuSans-4f" transform="translate(376.953125 0)"/>
       <use xlink:href="#DejaVuSans-54" transform="translate(455.664062 0)"/>
       <use xlink:href="#DejaVuSans-4f" transform="translate(516.748047 0)"/>
       <use xlink:href="#DejaVuSans-58" transform="translate(589.083984 0)"/>
       <use xlink:href="#DejaVuSans-49" transform="translate(657.589844 0)"/>
       <use xlink:href="#DejaVuSans-43" transform="translate(687.082031 0)"/>
       <use xlink:href="#DejaVuSans-49" transform="translate(756.90625 0)"/>
       <use xlink:href="#DejaVuSans-54" transform="translate(786.398438 0)"/>
       <use xlink:href="#DejaVuSans-59" transform="translate(847.482422 0)"/>
      </g>
     </g>
    </g>
    <g id="xtick_4">
     <g id="line2d_4">
      <path d="M 436.316532 334.84 
L 542.39638 78.740594 
" clip-path="url(#pdb5e3328a3)" style="fill: none; stroke: #b0b0b0; stroke-width: 0.8; stroke-linecap: square"/>
     </g>
     <g id="text_4">
      <!-- LCA_FRESHWATER_EUT -->
      <g transform="translate(430.947698 68.338311) scale(0.1 -0.1)">
       <defs>
        <path id="DejaVuSans-52" d="M 2841 2188 
Q 3044 2119 3236 1894 
Q 3428 1669 3622 1275 
L 4263 0 
L 3584 0 
L 2988 1197 
Q 2756 1666 2539 1819 
Q 2322 1972 1947 1972 
L 1259 1972 
L 1259 0 
L 628 0 
L 628 4666 
L 2053 4666 
Q 2853 4666 3247 4331 
Q 3641 3997 3641 3322 
Q 3641 2881 3436 2590 
Q 3231 2300 2841 2188 
z
M 1259 4147 
L 1259 2491 
L 2053 2491 
Q 2509 2491 2742 2702 
Q 2975 2913 2975 3322 
Q 2975 3731 2742 3939 
Q 2509 4147 2053 4147 
L 1259 4147 
z
" transform="scale(0.015625)"/>
        <path id="DejaVuSans-53" d="M 3425 4513 
L 3425 3897 
Q 3066 4069 2747 4153 
Q 2428 4238 2131 4238 
Q 1616 4238 1336 4038 
Q 1056 3838 1056 3469 
Q 1056 3159 1242 3001 
Q 1428 2844 1947 2747 
L 2328 2669 
Q 3034 2534 3370 2195 
Q 3706 1856 3706 1288 
Q 3706 609 3251 259 
Q 2797 -91 1919 -91 
Q 1588 -91 1214 -16 
Q 841 59 441 206 
L 441 856 
Q 825 641 1194 531 
Q 1563 422 1919 422 
Q 2459 422 2753 634 
Q 3047 847 3047 1241 
Q 3047 1584 2836 1778 
Q 2625 1972 2144 2069 
L 1759 2144 
Q 1053 2284 737 2584 
Q 422 2884 422 3419 
Q 422 4038 858 4394 
Q 1294 4750 2059 4750 
Q 2388 4750 2728 4690 
Q 3069 4631 3425 4513 
z
" transform="scale(0.015625)"/>
        <path id="DejaVuSans-48" d="M 628 4666 
L 1259 4666 
L 1259 2753 
L 3553 2753 
L 3553 4666 
L 4184 4666 
L 4184 0 
L 3553 0 
L 3553 2222 
L 1259 2222 
L 1259 0 
L 628 0 
L 628 4666 
z
" transform="scale(0.015625)"/>
        <path id="DejaVuSans-57" d="M 213 4666 
L 850 4666 
L 1831 722 
L 2809 4666 
L 3519 4666 
L 4500 722 
L 5478 4666 
L 6119 4666 
L 4947 0 
L 4153 0 
L 3169 4050 
L 2175 0 
L 1381 0 
L 213 4666 
z
" transform="scale(0.015625)"/>
        <path id="DejaVuSans-55" d="M 556 4666 
L 1191 4666 
L 1191 1831 
Q 1191 1081 1462 751 
Q 1734 422 2344 422 
Q 2950 422 3222 751 
Q 3494 1081 3494 1831 
L 3494 4666 
L 4128 4666 
L 4128 1753 
Q 4128 841 3676 375 
Q 3225 -91 2344 -91 
Q 1459 -91 1007 375 
Q 556 841 556 1753 
L 556 4666 
z
" transform="scale(0.015625)"/>
       </defs>
       <use xlink:href="#DejaVuSans-4c"/>
       <use xlink:href="#DejaVuSans-43" transform="translate(55.712891 0)"/>
       <use xlink:href="#DejaVuSans-41" transform="translate(125.537109 0)"/>
       <use xlink:href="#DejaVuSans-5f" transform="translate(193.945312 0)"/>
       <use xlink:href="#DejaVuSans-46" transform="translate(243.945312 0)"/>
       <use xlink:href="#DejaVuSans-52" transform="translate(301.464844 0)"/>
       <use xlink:href="#DejaVuSans-45" transform="translate(370.947266 0)"/>
       <use xlink:href="#DejaVuSans-53" transform="translate(434.130859 0)"/>
       <use xlink:href="#DejaVuSans-48" transform="translate(497.607422 0)"/>
       <use xlink:href="#DejaVuSans-57" transform="translate(572.802734 0)"/>
       <use xlink:href="#DejaVuSans-41" transform="translate(666.179688 0)"/>
       <use xlink:href="#DejaVuSans-54" transform="translate(726.837891 0)"/>
       <use xlink:href="#DejaVuSans-45" transform="translate(787.921875 0)"/>
       <use xlink:href="#DejaVuSans-52" transform="translate(851.105469 0)"/>
       <use xlink:href="#DejaVuSans-5f" transform="translate(920.587891 0)"/>
       <use xlink:href="#DejaVuSans-45" transform="translate(970.587891 0)"/>
       <use xlink:href="#DejaVuSans-55" transform="translate(1033.771484 0)"/>
       <use xlink:href="#DejaVuSans-54" transform="translate(1106.964844 0)"/>
      </g>
     </g>
    </g>
    <g id="xtick_5">
     <g id="line2d_5">
      <path d="M 436.316532 334.84 
L 436.316532 57.64 
" clip-path="url(#pdb5e3328a3)" style="fill: none; stroke: #b0b0b0; stroke-width: 0.8; stroke-linecap: square"/>
     </g>
     <g id="text_5">
      <!-- LCA_MARINE_EUT -->
      <g transform="translate(348.00872 46.172031) scale(0.1 -0.1)">
       <defs>
        <path id="DejaVuSans-4d" d="M 628 4666 
L 1569 4666 
L 2759 1491 
L 3956 4666 
L 4897 4666 
L 4897 0 
L 4281 0 
L 4281 4097 
L 3078 897 
L 2444 897 
L 1241 4097 
L 1241 0 
L 628 0 
L 628 4666 
z
" transform="scale(0.015625)"/>
       </defs>
       <use xlink:href="#DejaVuSans-4c"/>
       <use xlink:href="#DejaVuSans-43" transform="translate(55.712891 0)"/>
       <use xlink:href="#DejaVuSans-41" transform="translate(125.537109 0)"/>
       <use xlink:href="#DejaVuSans-5f" transform="translate(193.945312 0)"/>
       <use xlink:href="#DejaVuSans-4d" transform="translate(243.945312 0)"/>
       <use xlink:href="#DejaVuSans-41" transform="translate(330.224609 0)"/>
       <use xlink:href="#DejaVuSans-52" transform="translate(398.632812 0)"/>
       <use xlink:href="#DejaVuSans-49" transform="translate(468.115234 0)"/>
       <use xlink:href="#DejaVuSans-4e" transform="translate(497.607422 0)"/>
       <use xlink:href="#DejaVuSans-45" transform="translate(572.412109 0)"/>
       <use xlink:href="#DejaVuSans-5f" transform="translate(635.595703 0)"/>
       <use xlink:href="#DejaVuSans-45" transform="translate(685.595703 0)"/>
       <use xlink:href="#DejaVuSans-55" transform="translate(748.779297 0)"/>
       <use xlink:href="#DejaVuSans-54" transform="translate(821.972656 0)"/>
      </g>
     </g>
    </g>
    <g id="xtick_6">
     <g id="line2d_6">
      <path d="M 436.316532 334.84 
L 330.236685 78.740594 
" clip-path="url(#pdb5e3328a3)" style="fill: none; stroke: #b0b0b0; stroke-width: 0.8; stroke-linecap: square"/>
     </g>
     <g id="text_6">
      <!-- LCA_TERRESTRIAL_EUT -->
      <g transform="translate(208.329117 68.338311) scale(0.1 -0.1)">
       <use xlink:href="#DejaVuSans-4c"/>
       <use xlink:href="#DejaVuSans-43" transform="translate(55.712891 0)"/>
       <use xlink:href="#DejaVuSans-41" transform="translate(125.537109 0)"/>
       <use xlink:href="#DejaVuSans-5f" transform="translate(193.945312 0)"/>
       <use xlink:href="#DejaVuSans-54" transform="translate(243.945312 0)"/>
       <use xlink:href="#DejaVuSans-45" transform="translate(305.029297 0)"/>
       <use xlink:href="#DejaVuSans-52" transform="translate(368.212891 0)"/>
       <use xlink:href="#DejaVuSans-52" transform="translate(437.695312 0)"/>
       <use xlink:href="#DejaVuSans-45" transform="translate(507.177734 0)"/>
       <use xlink:href="#DejaVuSans-53" transform="translate(570.361328 0)"/>
       <use xlink:href="#DejaVuSans-54" transform="translate(633.837891 0)"/>
       <use xlink:href="#DejaVuSans-52" transform="translate(694.921875 0)"/>
       <use xlink:href="#DejaVuSans-49" transform="translate(764.404297 0)"/>
       <use xlink:href="#DejaVuSans-41" transform="translate(793.896484 0)"/>
       <use xlink:href="#DejaVuSans-4c" transform="translate(862.304688 0)"/>
       <use xlink:href="#DejaVuSans-5f" transform="translate(918.017578 0)"/>
       <use xlink:href="#DejaVuSans-45" transform="translate(968.017578 0)"/>
       <use xlink:href="#DejaVuSans-55" transform="translate(1031.201172 0)"/>
       <use xlink:href="#DejaVuSans-54" transform="translate(1104.394531 0)"/>
      </g>
     </g>
    </g>
    <g id="xtick_7">
     <g id="line2d_7">
      <path d="M 436.316532 334.84 
L 240.306533 138.83 
" clip-path="url(#pdb5e3328a3)" style="fill: none; stroke: #b0b0b0; stroke-width: 0.8; stroke-linecap: square"/>
     </g>
     <g id="text_7">
      <!-- LCA_HUMAN_TOXICITY_CARC -->
      <g transform="translate(85.67735 131.462537) scale(0.1 -0.1)">
       <use xlink:href="#DejaVuSans-4c"/>
       <use xlink:href="#DejaVuSans-43" transform="translate(55.712891 0)"/>
       <use xlink:href="#DejaVuSans-41" transform="translate(125.537109 0)"/>
       <use xlink:href="#DejaVuSans-5f" transform="translate(193.945312 0)"/>
       <use xlink:href="#DejaVuSans-48" transform="translate(243.945312 0)"/>
       <use xlink:href="#DejaVuSans-55" transform="translate(319.140625 0)"/>
       <use xlink:href="#DejaVuSans-4d" transform="translate(392.333984 0)"/>
       <use xlink:href="#DejaVuSans-41" transform="translate(478.613281 0)"/>
       <use xlink:href="#DejaVuSans-4e" transform="translate(547.021484 0)"/>
       <use xlink:href="#DejaVuSans-5f" transform="translate(621.826172 0)"/>
       <use xlink:href="#DejaVuSans-54" transform="translate(671.826172 0)"/>
       <use xlink:href="#DejaVuSans-4f" transform="translate(732.910156 0)"/>
       <use xlink:href="#DejaVuSans-58" transform="translate(805.246094 0)"/>
       <use xlink:href="#DejaVuSans-49" transform="translate(873.751953 0)"/>
       <use xlink:href="#DejaVuSans-43" transform="translate(903.244141 0)"/>
       <use xlink:href="#DejaVuSans-49" transform="translate(973.068359 0)"/>
       <use xlink:href="#DejaVuSans-54" transform="translate(1002.560547 0)"/>
       <use xlink:href="#DejaVuSans-59" transform="translate(1063.644531 0)"/>
       <use xlink:href="#DejaVuSans-5f" transform="translate(1124.728516 0)"/>
       <use xlink:href="#DejaVuSans-43" transform="translate(1174.728516 0)"/>
       <use xlink:href="#DejaVuSans-41" transform="translate(1244.552734 0)"/>
       <use xlink:href="#DejaVuSans-52" transform="translate(1312.960938 0)"/>
       <use xlink:href="#DejaVuSans-43" transform="translate(1377.443359 0)"/>
      </g>
     </g>
    </g>
    <g id="xtick_8">
     <g id="line2d_8">
      <path d="M 436.316532 334.84 
L 180.217126 228.760153 
" clip-path="url(#pdb5e3328a3)" style="fill: none; stroke: #b0b0b0; stroke-width: 0.8; stroke-linecap: square"/>
     </g>
     <g id="text_8">
      <!-- LCA_HUMAN_TOXICITY_NOCARC -->
      <g transform="translate(7.2 225.934616) scale(0.1 -0.1)">
       <use xlink:href="#DejaVuSans-4c"/>
       <use xlink:href="#DejaVuSans-43" transform="translate(55.712891 0)"/>
       <use xlink:href="#DejaVuSans-41" transform="translate(125.537109 0)"/>
       <use xlink:href="#DejaVuSans-5f" transform="translate(193.945312 0)"/>
       <use xlink:href="#DejaVuSans-48" transform="translate(243.945312 0)"/>
       <use xlink:href="#DejaVuSans-55" transform="translate(319.140625 0)"/>
       <use xlink:href="#DejaVuSans-4d" transform="translate(392.333984 0)"/>
       <use xlink:href="#DejaVuSans-41" transform="translate(478.613281 0)"/>
       <use xlink:href="#DejaVuSans-4e" transform="translate(547.021484 0)"/>
       <use xlink:href="#DejaVuSans-5f" transform="translate(621.826172 0)"/>
       <use xlink:href="#DejaVuSans-54" transform="translate(671.826172 0)"/>
       <use xlink:href="#DejaVuSans-4f" transform="translate(732.910156 0)"/>
       <use xlink:href="#DejaVuSans-58" transform="translate(805.246094 0)"/>
       <use xlink:href="#DejaVuSans-49" transform="translate(873.751953 0)"/>
       <use xlink:href="#DejaVuSans-43" transform="translate(903.244141 0)"/>
       <use xlink:href="#DejaVuSans-49" transform="translate(973.068359 0)"/>
       <use xlink:href="#DejaVuSans-54" transform="translate(1002.560547 0)"/>
       <use xlink:href="#DejaVuSans-59" transform="translate(1063.644531 0)"/>
       <use xlink:href="#DejaVuSans-5f" transform="translate(1124.728516 0)"/>
       <use xlink:href="#DejaVuSans-4e" transform="translate(1174.728516 0)"/>
       <use xlink:href="#DejaVuSans-4f" transform="translate(1249.533203 0)"/>
       <use xlink:href="#DejaVuSans-43" transform="translate(1328.244141 0)"/>
       <use xlink:href="#DejaVuSans-41" transform="translate(1398.068359 0)"/>
       <use xlink:href="#DejaVuSans-52" transform="translate(1466.476562 0)"/>
       <use xlink:href="#DejaVuSans-43" transform="translate(1530.958984 0)"/>
      </g>
     </g>
    </g>
    <g id="xtick_9">
     <g id="line2d_9">
      <path d="M 436.316532 334.84 
L 159.116532 334.84 
" clip-path="url(#pdb5e3328a3)" style="fill: none; stroke: #b0b0b0; stroke-width: 0.8; stroke-linecap: square"/>
     </g>
     <g id="text_9">
      <!-- LCA_IONIZING_RADIATION -->
      <g transform="translate(14.922782 337.372031) scale(0.1 -0.1)">
       <defs>
        <path id="DejaVuSans-5a" d="M 359 4666 
L 4025 4666 
L 4025 4184 
L 1075 531 
L 4097 531 
L 4097 0 
L 288 0 
L 288 481 
L 3238 4134 
L 359 4134 
L 359 4666 
z
" transform="scale(0.015625)"/>
        <path id="DejaVuSans-47" d="M 3809 666 
L 3809 1919 
L 2778 1919 
L 2778 2438 
L 4434 2438 
L 4434 434 
Q 4069 175 3628 42 
Q 3188 -91 2688 -91 
Q 1594 -91 976 548 
Q 359 1188 359 2328 
Q 359 3472 976 4111 
Q 1594 4750 2688 4750 
Q 3144 4750 3555 4637 
Q 3966 4525 4313 4306 
L 4313 3634 
Q 3963 3931 3569 4081 
Q 3175 4231 2741 4231 
Q 1884 4231 1454 3753 
Q 1025 3275 1025 2328 
Q 1025 1384 1454 906 
Q 1884 428 2741 428 
Q 3075 428 3337 486 
Q 3600 544 3809 666 
z
" transform="scale(0.015625)"/>
       </defs>
       <use xlink:href="#DejaVuSans-4c"/>
       <use xlink:href="#DejaVuSans-43" transform="translate(55.712891 0)"/>
       <use xlink:href="#DejaVuSans-41" transform="translate(125.537109 0)"/>
       <use xlink:href="#DejaVuSans-5f" transform="translate(193.945312 0)"/>
       <use xlink:href="#DejaVuSans-49" transform="translate(243.945312 0)"/>
       <use xlink:href="#DejaVuSans-4f" transform="translate(273.4375 0)"/>
       <use xlink:href="#DejaVuSans-4e" transform="translate(352.148438 0)"/>
       <use xlink:href="#DejaVuSans-49" transform="translate(426.953125 0)"/>
       <use xlink:href="#DejaVuSans-5a" transform="translate(456.445312 0)"/>
       <use xlink:href="#DejaVuSans-49" transform="translate(524.951172 0)"/>
       <use xlink:href="#DejaVuSans-4e" transform="translate(554.443359 0)"/>
       <use xlink:href="#DejaVuSans-47" transform="translate(629.248047 0)"/>
       <use xlink:href="#DejaVuSans-5f" transform="translate(706.738281 0)"/>
       <use xlink:href="#DejaVuSans-52" transform="translate(756.738281 0)"/>
       <use xlink:href="#DejaVuSans-41" transform="translate(822.220703 0)"/>
       <use xlink:href="#DejaVuSans-44" transform="translate(890.628906 0)"/>
       <use xlink:href="#DejaVuSans-49" transform="translate(967.630859 0)"/>
       <use xlink:href="#DejaVuSans-41" transform="translate(997.123047 0)"/>
       <use xlink:href="#DejaVuSans-54" transform="translate(1057.78125 0)"/>
       <use xlink:href="#DejaVuSans-49" transform="translate(1118.865234 0)"/>
       <use xlink:href="#DejaVuSans-4f" transform="translate(1148.357422 0)"/>
       <use xlink:href="#DejaVuSans-4e" transform="translate(1227.068359 0)"/>
      </g>
     </g>
    </g>
    <g id="xtick_10">
     <g id="line2d_10">
      <path d="M 436.316532 334.84 
L 180.217126 440.919847 
" clip-path="url(#pdb5e3328a3)" style="fill: none; stroke: #b0b0b0; stroke-width: 0.8; stroke-linecap: square"/>
     </g>
     <g id="text_10">
      <!-- LCA_LANDUSE -->
      <g transform="translate(95.082813 448.809447) scale(0.1 -0.1)">
       <use xlink:href="#DejaVuSans-4c"/>
       <use xlink:href="#DejaVuSans-43" transform="translate(55.712891 0)"/>
       <use xlink:href="#DejaVuSans-41" transform="translate(125.537109 0)"/>
       <use xlink:href="#DejaVuSans-5f" transform="translate(193.945312 0)"/>
       <use xlink:href="#DejaVuSans-4c" transform="translate(243.945312 0)"/>
       <use xlink:href="#DejaVuSans-41" transform="translate(301.908203 0)"/>
       <use xlink:href="#DejaVuSans-4e" transform="translate(370.316406 0)"/>
       <use xlink:href="#DejaVuSans-44" transform="translate(445.121094 0)"/>
       <use xlink:href="#DejaVuSans-55" transform="translate(522.123047 0)"/>
       <use xlink:href="#DejaVuSans-53" transform="translate(595.316406 0)"/>
       <use xlink:href="#DejaVuSans-45" transform="translate(658.792969 0)"/>
      </g>
     </g>
    </g>
    <g id="xtick_11">
     <g id="line2d_11">
      <path d="M 436.316532 334.84 
L 240.306533 530.85 
" clip-path="url(#pdb5e3328a3)" style="fill: none; stroke: #b0b0b0; stroke-width: 0.8; stroke-linecap: square"/>
     </g>
     <g id="text_11">
      <!-- LCA_MINERAL_DEPLETION -->
      <g transform="translate(100.322663 543.281526) scale(0.1 -0.1)">
       <defs>
        <path id="DejaVuSans-50" d="M 1259 4147 
L 1259 2394 
L 2053 2394 
Q 2494 2394 2734 2622 
Q 2975 2850 2975 3272 
Q 2975 3691 2734 3919 
Q 2494 4147 2053 4147 
L 1259 4147 
z
M 628 4666 
L 2053 4666 
Q 2838 4666 3239 4311 
Q 3641 3956 3641 3272 
Q 3641 2581 3239 2228 
Q 2838 1875 2053 1875 
L 1259 1875 
L 1259 0 
L 628 0 
L 628 4666 
z
" transform="scale(0.015625)"/>
       </defs>
       <use xlink:href="#DejaVuSans-4c"/>
       <use xlink:href="#DejaVuSans-43" transform="translate(55.712891 0)"/>
       <use xlink:href="#DejaVuSans-41" transform="translate(125.537109 0)"/>
       <use xlink:href="#DejaVuSans-5f" transform="translate(193.945312 0)"/>
       <use xlink:href="#DejaVuSans-4d" transform="translate(243.945312 0)"/>
       <use xlink:href="#DejaVuSans-49" transform="translate(330.224609 0)"/>
       <use xlink:href="#DejaVuSans-4e" transform="translate(359.716797 0)"/>
       <use xlink:href="#DejaVuSans-45" transform="translate(434.521484 0)"/>
       <use xlink:href="#DejaVuSans-52" transform="translate(497.705078 0)"/>
       <use xlink:href="#DejaVuSans-41" transform="translate(563.1875 0)"/>
       <use xlink:href="#DejaVuSans-4c" transform="translate(631.595703 0)"/>
       <use xlink:href="#DejaVuSans-5f" transform="translate(687.308594 0)"/>
       <use xlink:href="#DejaVuSans-44" transform="translate(737.308594 0)"/>
       <use xlink:href="#DejaVuSans-45" transform="translate(814.310547 0)"/>
       <use xlink:href="#DejaVuSans-50" transform="translate(877.494141 0)"/>
       <use xlink:href="#DejaVuSans-4c" transform="translate(937.796875 0)"/>
       <use xlink:href="#DejaVuSans-45" transform="translate(993.509766 0)"/>
       <use xlink:href="#DejaVuSans-54" transform="translate(1056.693359 0)"/>
       <use xlink:href="#DejaVuSans-49" transform="translate(1117.777344 0)"/>
       <use xlink:href="#DejaVuSans-4f" transform="translate(1147.269531 0)"/>
       <use xlink:href="#DejaVuSans-4e" transform="translate(1225.980469 0)"/>
      </g>
     </g>
    </g>
    <g id="xtick_12">
     <g id="line2d_12">
      <path d="M 436.316532 334.84 
L 330.236685 590.939406 
" clip-path="url(#pdb5e3328a3)" style="fill: none; stroke: #b0b0b0; stroke-width: 0.8; stroke-linecap: square"/>
     </g>
     <g id="text_12">
      <!-- LCA_PARTICULATE_MATTER -->
      <g transform="translate(189.377554 606.405751) scale(0.1 -0.1)">
       <use xlink:href="#DejaVuSans-4c"/>
       <use xlink:href="#DejaVuSans-43" transform="translate(55.712891 0)"/>
       <use xlink:href="#DejaVuSans-41" transform="translate(125.537109 0)"/>
       <use xlink:href="#DejaVuSans-5f" transform="translate(193.945312 0)"/>
       <use xlink:href="#DejaVuSans-50" transform="translate(243.945312 0)"/>
       <use xlink:href="#DejaVuSans-41" transform="translate(297.873047 0)"/>
       <use xlink:href="#DejaVuSans-52" transform="translate(366.28125 0)"/>
       <use xlink:href="#DejaVuSans-54" transform="translate(428.513672 0)"/>
       <use xlink:href="#DejaVuSans-49" transform="translate(489.597656 0)"/>
       <use xlink:href="#DejaVuSans-43" transform="translate(519.089844 0)"/>
       <use xlink:href="#DejaVuSans-55" transform="translate(588.914062 0)"/>
       <use xlink:href="#DejaVuSans-4c" transform="translate(662.107422 0)"/>
       <use xlink:href="#DejaVuSans-41" transform="translate(720.070312 0)"/>
       <use xlink:href="#DejaVuSans-54" transform="translate(780.728516 0)"/>
       <use xlink:href="#DejaVuSans-45" transform="translate(841.8125 0)"/>
       <use xlink:href="#DejaVuSans-5f" transform="translate(904.996094 0)"/>
       <use xlink:href="#DejaVuSans-4d" transform="translate(954.996094 0)"/>
       <use xlink:href="#DejaVuSans-41" transform="translate(1041.275391 0)"/>
       <use xlink:href="#DejaVuSans-54" transform="translate(1101.933594 0)"/>
       <use xlink:href="#DejaVuSans-54" transform="translate(1161.267578 0)"/>
       <use xlink:href="#DejaVuSans-45" transform="translate(1222.351562 0)"/>
       <use xlink:href="#DejaVuSans-52" transform="translate(1285.535156 0)"/>
      </g>
     </g>
    </g>
    <g id="xtick_13">
     <g id="line2d_13">
      <path d="M 436.316532 334.84 
L 436.316532 612.04 
" clip-path="url(#pdb5e3328a3)" style="fill: none; stroke: #b0b0b0; stroke-width: 0.8; stroke-linecap: square"/>
     </g>
     <g id="text_13">
      <!-- LCA_OZONE_TROPOS -->
      <g transform="translate(329.349345 628.572031) scale(0.1 -0.1)">
       <use xlink:href="#DejaVuSans-4c"/>
       <use xlink:href="#DejaVuSans-43" transform="translate(55.712891 0)"/>
       <use xlink:href="#DejaVuSans-41" transform="translate(125.537109 0)"/>
       <use xlink:href="#DejaVuSans-5f" transform="translate(193.945312 0)"/>
       <use xlink:href="#DejaVuSans-4f" transform="translate(243.945312 0)"/>
       <use xlink:href="#DejaVuSans-5a" transform="translate(322.65625 0)"/>
       <use xlink:href="#DejaVuSans-4f" transform="translate(391.162109 0)"/>
       <use xlink:href="#DejaVuSans-4e" transform="translate(469.873047 0)"/>
       <use xlink:href="#DejaVuSans-45" transform="translate(544.677734 0)"/>
       <use xlink:href="#DejaVuSans-5f" transform="translate(607.861328 0)"/>
       <use xlink:href="#DejaVuSans-54" transform="translate(657.861328 0)"/>
       <use xlink:href="#DejaVuSans-52" transform="translate(718.945312 0)"/>
       <use xlink:href="#DejaVuSans-4f" transform="translate(788.427734 0)"/>
       <use xlink:href="#DejaVuSans-50" transform="translate(867.138672 0)"/>
       <use xlink:href="#DejaVuSans-4f" transform="translate(927.441406 0)"/>
       <use xlink:href="#DejaVuSans-53" transform="translate(1006.152344 0)"/>
      </g>
     </g>
    </g>
    <g id="xtick_14">
     <g id="line2d_14">
      <path d="M 436.316532 334.84 
L 542.39638 590.939406 
" clip-path="url(#pdb5e3328a3)" style="fill: none; stroke: #b0b0b0; stroke-width: 0.8; stroke-linecap: square"/>
     </g>
     <g id="text_14">
      <!-- LCA_WATER_DEPLETION -->
      <g transform="translate(427.23051 606.405751) scale(0.1 -0.1)">
       <use xlink:href="#DejaVuSans-4c"/>
       <use xlink:href="#DejaVuSans-43" transform="translate(55.712891 0)"/>
       <use xlink:href="#DejaVuSans-41" transform="translate(125.537109 0)"/>
       <use xlink:href="#DejaVuSans-5f" transform="translate(193.945312 0)"/>
       <use xlink:href="#DejaVuSans-57" transform="translate(243.945312 0)"/>
       <use xlink:href="#DejaVuSans-41" transform="translate(337.322266 0)"/>
       <use xlink:href="#DejaVuSans-54" transform="translate(397.980469 0)"/>
       <use xlink:href="#DejaVuSans-45" transform="translate(459.064453 0)"/>
       <use xlink:href="#DejaVuSans-52" transform="translate(522.248047 0)"/>
       <use xlink:href="#DejaVuSans-5f" transform="translate(591.730469 0)"/>
       <use xlink:href="#DejaVuSans-44" transform="translate(641.730469 0)"/>
       <use xlink:href="#DejaVuSans-45" transform="translate(718.732422 0)"/>
       <use xlink:href="#DejaVuSans-50" transform="translate(781.916016 0)"/>
       <use xlink:href="#DejaVuSans-4c" transform="translate(842.21875 0)"/>
       <use xlink:href="#DejaVuSans-45" transform="translate(897.931641 0)"/>
       <use xlink:href="#DejaVuSans-54" transform="translate(961.115234 0)"/>
       <use xlink:href="#DejaVuSans-49" transform="translate(1022.199219 0)"/>
       <use xlink:href="#DejaVuSans-4f" transform="translate(1051.691406 0)"/>
       <use xlink:href="#DejaVuSans-4e" transform="translate(1130.402344 0)"/>
      </g>
     </g>
    </g>
    <g id="xtick_15">
     <g id="line2d_15">
      <path d="M 436.316532 334.84 
L 632.326532 530.85 
" clip-path="url(#pdb5e3328a3)" style="fill: none; stroke: #b0b0b0; stroke-width: 0.8; stroke-linecap: square"/>
     </g>
     <g id="text_15">
      <!-- LCA_ABIOTIC_DEPLETION -->
      <g transform="translate(515.916652 543.281526) scale(0.1 -0.1)">
       <defs>
        <path id="DejaVuSans-42" d="M 1259 2228 
L 1259 519 
L 2272 519 
Q 2781 519 3026 730 
Q 3272 941 3272 1375 
Q 3272 1813 3026 2020 
Q 2781 2228 2272 2228 
L 1259 2228 
z
M 1259 4147 
L 1259 2741 
L 2194 2741 
Q 2656 2741 2882 2914 
Q 3109 3088 3109 3444 
Q 3109 3797 2882 3972 
Q 2656 4147 2194 4147 
L 1259 4147 
z
M 628 4666 
L 2241 4666 
Q 2963 4666 3353 4366 
Q 3744 4066 3744 3513 
Q 3744 3084 3544 2831 
Q 3344 2578 2956 2516 
Q 3422 2416 3680 2098 
Q 3938 1781 3938 1306 
Q 3938 681 3513 340 
Q 3088 0 2303 0 
L 628 0 
L 628 4666 
z
" transform="scale(0.015625)"/>
       </defs>
       <use xlink:href="#DejaVuSans-4c"/>
       <use xlink:href="#DejaVuSans-43" transform="translate(55.712891 0)"/>
       <use xlink:href="#DejaVuSans-41" transform="translate(125.537109 0)"/>
       <use xlink:href="#DejaVuSans-5f" transform="translate(193.945312 0)"/>
       <use xlink:href="#DejaVuSans-41" transform="translate(243.945312 0)"/>
       <use xlink:href="#DejaVuSans-42" transform="translate(312.353516 0)"/>
       <use xlink:href="#DejaVuSans-49" transform="translate(380.957031 0)"/>
       <use xlink:href="#DejaVuSans-4f" transform="translate(410.449219 0)"/>
       <use xlink:href="#DejaVuSans-54" transform="translate(489.160156 0)"/>
       <use xlink:href="#DejaVuSans-49" transform="translate(550.244141 0)"/>
       <use xlink:href="#DejaVuSans-43" transform="translate(579.736328 0)"/>
       <use xlink:href="#DejaVuSans-5f" transform="translate(649.560547 0)"/>
       <use xlink:href="#DejaVuSans-44" transform="translate(699.560547 0)"/>
       <use xlink:href="#DejaVuSans-45" transform="translate(776.5625 0)"/>
       <use xlink:href="#DejaVuSans-50" transform="translate(839.746094 0)"/>
       <use xlink:href="#DejaVuSans-4c" transform="translate(900.048828 0)"/>
       <use xlink:href="#DejaVuSans-45" transform="translate(955.761719 0)"/>
       <use xlink:href="#DejaVuSans-54" transform="translate(1018.945312 0)"/>
       <use xlink:href="#DejaVuSans-49" transform="translate(1080.029297 0)"/>
       <use xlink:href="#DejaVuSans-4f" transform="translate(1109.521484 0)"/>
       <use xlink:href="#DejaVuSans-4e" transform="translate(1188.232422 0)"/>
      </g>
     </g>
    </g>
    <g id="xtick_16">
     <g id="line2d_16">
      <path d="M 436.316532 334.84 
L 692.415939 440.919847 
" clip-path="url(#pdb5e3328a3)" style="fill: none; stroke: #b0b0b0; stroke-width: 0.8; stroke-linecap: square"/>
     </g>
     <g id="text_16">
      <!-- LCA_OZONE_DEPLETION -->
      <g transform="translate(583.21119 448.809447) scale(0.1 -0.1)">
       <use xlink:href="#DejaVuSans-4c"/>
       <use xlink:href="#DejaVuSans-43" transform="translate(55.712891 0)"/>
       <use xlink:href="#DejaVuSans-41" transform="translate(125.537109 0)"/>
       <use xlink:href="#DejaVuSans-5f" transform="translate(193.945312 0)"/>
       <use xlink:href="#DejaVuSans-4f" transform="translate(243.945312 0)"/>
       <use xlink:href="#DejaVuSans-5a" transform="translate(322.65625 0)"/>
       <use xlink:href="#DejaVuSans-4f" transform="translate(391.162109 0)"/>
       <use xlink:href="#DejaVuSans-4e" transform="translate(469.873047 0)"/>
       <use xlink:href="#DejaVuSans-45" transform="translate(544.677734 0)"/>
       <use xlink:href="#DejaVuSans-5f" transform="translate(607.861328 0)"/>
       <use xlink:href="#DejaVuSans-44" transform="translate(657.861328 0)"/>
       <use xlink:href="#DejaVuSans-45" transform="translate(734.863281 0)"/>
       <use xlink:href="#DejaVuSans-50" transform="translate(798.046875 0)"/>
       <use xlink:href="#DejaVuSans-4c" transform="translate(858.349609 0)"/>
       <use xlink:href="#DejaVuSans-45" transform="translate(914.0625 0)"/>
       <use xlink:href="#DejaVuSans-54" transform="translate(977.246094 0)"/>
       <use xlink:href="#DejaVuSans-49" transform="translate(1038.330078 0)"/>
       <use xlink:href="#DejaVuSans-4f" transform="translate(1067.822266 0)"/>
       <use xlink:href="#DejaVuSans-4e" transform="translate(1146.533203 0)"/>
      </g>
     </g>
    </g>
   </g>
   <g id="matplotlib.axis_2">
    <g id="ytick_1">
     <g id="line2d_17">
      <path d="M 459.350201 334.84 
C 459.350201 331.815246 458.754391 328.819904 457.596868 326.025396 
C 456.439345 323.230888 454.74262 320.69156 452.603796 318.552736 
C 450.464972 316.413913 447.925644 314.717188 445.131136 313.559665 
C 442.336628 312.402141 439.341286 311.806331 436.316532 311.806331 
C 433.291779 311.806331 430.296437 312.402141 427.501929 313.559665 
C 424.707421 314.717188 422.168093 316.413913 420.029269 318.552736 
C 417.890445 320.69156 416.19372 323.230888 415.036197 326.025396 
C 413.878674 328.819904 413.282863 331.815246 413.282863 334.84 
C 413.282863 337.864754 413.878674 340.860096 415.036197 343.654604 
C 416.19372 346.449112 417.890445 348.98844 420.029269 351.127264 
C 422.168093 353.266087 424.707421 354.962812 427.501929 356.120335 
C 430.296437 357.277859 433.291779 357.873669 436.316532 357.873669 
C 439.341286 357.873669 442.336628 357.277859 445.131136 356.120335 
C 447.925644 354.962812 450.464972 353.266087 452.603796 351.127264 
C 454.74262 348.98844 456.439345 346.449112 457.596868 343.654604 
C 458.754391 340.860096 459.350201 337.864754 459.350201 334.84 
" clip-path="url(#pdb5e3328a3)" style="fill: none; stroke: #b0b0b0; stroke-width: 0.8; stroke-linecap: square"/>
     </g>
     <g id="text_17">
      <!-- 0.01 -->
      <g transform="translate(457.596868 323.945709) scale(0.1 -0.1)">
       <defs>
        <path id="DejaVuSans-30" d="M 2034 4250 
Q 1547 4250 1301 3770 
Q 1056 3291 1056 2328 
Q 1056 1369 1301 889 
Q 1547 409 2034 409 
Q 2525 409 2770 889 
Q 3016 1369 3016 2328 
Q 3016 3291 2770 3770 
Q 2525 4250 2034 4250 
z
M 2034 4750 
Q 2819 4750 3233 4129 
Q 3647 3509 3647 2328 
Q 3647 1150 3233 529 
Q 2819 -91 2034 -91 
Q 1250 -91 836 529 
Q 422 1150 422 2328 
Q 422 3509 836 4129 
Q 1250 4750 2034 4750 
z
" transform="scale(0.015625)"/>
        <path id="DejaVuSans-2e" d="M 684 794 
L 1344 794 
L 1344 0 
L 684 0 
L 684 794 
z
" transform="scale(0.015625)"/>
        <path id="DejaVuSans-31" d="M 794 531 
L 1825 531 
L 1825 4091 
L 703 3866 
L 703 4441 
L 1819 4666 
L 2450 4666 
L 2450 531 
L 3481 531 
L 3481 0 
L 794 0 
L 794 531 
z
" transform="scale(0.015625)"/>
       </defs>
       <use xlink:href="#DejaVuSans-30"/>
       <use xlink:href="#DejaVuSans-2e" transform="translate(63.623047 0)"/>
       <use xlink:href="#DejaVuSans-30" transform="translate(95.410156 0)"/>
       <use xlink:href="#DejaVuSans-31" transform="translate(159.033203 0)"/>
      </g>
     </g>
    </g>
    <g id="ytick_2">
     <g id="line2d_18">
      <path d="M 522.891784 334.84 
C 522.891784 323.471042 520.652347 312.212633 516.301636 301.709085 
C 511.950924 291.205538 505.573547 281.66112 497.53448 273.622052 
C 489.495413 265.582985 479.950994 259.205609 469.447447 254.854897 
C 458.943899 250.504185 447.68549 248.264748 436.316532 248.264748 
C 424.947574 248.264748 413.689165 250.504185 403.185618 254.854897 
C 392.68207 259.205609 383.137652 265.582985 375.098585 273.622052 
C 367.059517 281.66112 360.682141 291.205538 356.331429 301.709085 
C 351.980717 312.212633 349.741281 323.471042 349.741281 334.84 
C 349.741281 346.208958 351.980717 357.467367 356.331429 367.970915 
C 360.682141 378.474462 367.059517 388.01888 375.098585 396.057948 
C 383.137652 404.097015 392.68207 410.474391 403.185618 414.825103 
C 413.689165 419.175815 424.947574 421.415252 436.316532 421.415252 
C 447.68549 421.415252 458.943899 419.175815 469.447447 414.825103 
C 479.950994 410.474391 489.495413 404.097015 497.53448 396.057948 
C 505.573547 388.01888 511.950924 378.474462 516.301636 367.970915 
C 520.652347 357.467367 522.891784 346.208958 522.891784 334.84 
" clip-path="url(#pdb5e3328a3)" style="fill: none; stroke: #b0b0b0; stroke-width: 0.8; stroke-linecap: square"/>
     </g>
     <g id="text_18">
      <!-- 0.1 -->
      <g transform="translate(516.301636 299.629398) scale(0.1 -0.1)">
       <use xlink:href="#DejaVuSans-30"/>
       <use xlink:href="#DejaVuSans-2e" transform="translate(63.623047 0)"/>
       <use xlink:href="#DejaVuSans-31" transform="translate(95.410156 0)"/>
      </g>
     </g>
    </g>
    <g id="ytick_3">
     <g id="line2d_19">
      <path d="M 586.433367 334.84 
C 586.433367 315.126838 582.550304 295.605361 575.006403 277.392774 
C 567.462503 259.180188 556.404475 242.630679 542.465164 228.691368 
C 528.525853 214.752058 511.976345 203.69403 493.763758 196.150129 
C 475.551171 188.606229 456.029694 184.723165 436.316532 184.723165 
C 416.60337 184.723165 397.081894 188.606229 378.869307 196.150129 
C 360.65672 203.69403 344.107211 214.752058 330.167901 228.691368 
C 316.22859 242.630679 305.170562 259.180188 297.626661 277.392774 
C 290.082761 295.605361 286.199698 315.126838 286.199698 334.84 
C 286.199698 354.553162 290.082761 374.074639 297.626661 392.287226 
C 305.170562 410.499812 316.22859 427.049321 330.167901 440.988632 
C 344.107211 454.927942 360.65672 465.98597 378.869307 473.529871 
C 397.081894 481.073771 416.60337 484.956835 436.316532 484.956835 
C 456.029694 484.956835 475.551171 481.073771 493.763758 473.529871 
C 511.976345 465.98597 528.525853 454.927942 542.465164 440.988632 
C 556.404475 427.049321 567.462503 410.499812 575.006403 392.287226 
C 582.550304 374.074639 586.433367 354.553162 586.433367 334.84 
" clip-path="url(#pdb5e3328a3)" style="fill: none; stroke: #b0b0b0; stroke-width: 0.8; stroke-linecap: square"/>
     </g>
     <g id="text_19">
      <!-- 1 -->
      <g transform="translate(575.006403 275.313087) scale(0.1 -0.1)">
       <use xlink:href="#DejaVuSans-31"/>
      </g>
     </g>
    </g>
    <g id="ytick_4">
     <g id="line2d_20">
      <path d="M 649.97495 334.84 
C 649.97495 306.782634 644.44826 278.99809 633.711171 253.076464 
C 622.974082 227.154837 607.235402 203.600238 587.395848 183.760684 
C 567.556294 163.92113 544.001695 148.182451 518.080069 137.445361 
C 492.158442 126.708272 464.373899 121.181583 436.316532 121.181583 
C 408.259166 121.181583 380.474622 126.708272 354.552996 137.445361 
C 328.631369 148.182451 305.076771 163.92113 285.237217 183.760684 
C 265.397663 203.600238 249.658983 227.154837 238.921894 253.076464 
C 228.184804 278.99809 222.658115 306.782634 222.658115 334.84 
C 222.658115 362.897366 228.184804 390.68191 238.921894 416.603536 
C 249.658983 442.525163 265.397663 466.079762 285.237217 485.919316 
C 305.076771 505.75887 328.631369 521.497549 354.552996 532.234639 
C 380.474622 542.971728 408.259166 548.498417 436.316532 548.498417 
C 464.373899 548.498417 492.158442 542.971728 518.080069 532.234639 
C 544.001695 521.497549 567.556294 505.75887 587.395848 485.919316 
C 607.235402 466.079762 622.974082 442.525163 633.711171 416.603536 
C 644.44826 390.68191 649.97495 362.897366 649.97495 334.84 
" clip-path="url(#pdb5e3328a3)" style="fill: none; stroke: #b0b0b0; stroke-width: 0.8; stroke-linecap: square"/>
     </g>
     <g id="text_20">
      <!-- 10 -->
      <g transform="translate(633.711171 250.996776) scale(0.1 -0.1)">
       <use xlink:href="#DejaVuSans-31"/>
       <use xlink:href="#DejaVuSans-30" transform="translate(63.623047 0)"/>
      </g>
     </g>
    </g>
    <g id="ytick_5">
     <g id="line2d_21">
      <path d="M 713.516532 334.84 
C 713.516532 298.43843 706.346217 262.390818 692.415939 228.760153 
C 678.485661 195.129487 658.066329 164.569798 632.326532 138.83 
C 606.586735 113.090203 576.027046 92.670872 542.39638 78.740594 
C 508.765714 64.810316 472.718103 57.64 436.316532 57.64 
C 399.914962 57.64 363.867351 64.810316 330.236685 78.740594 
C 296.606019 92.670872 266.04633 113.090203 240.306533 138.83 
C 214.566735 164.569798 194.147404 195.129487 180.217126 228.760153 
C 166.286848 262.390818 159.116532 298.43843 159.116532 334.84 
C 159.116532 371.24157 166.286848 407.289182 180.217126 440.919847 
C 194.147404 474.550513 214.566735 505.110202 240.306533 530.85 
C 266.04633 556.589797 296.606019 577.009128 330.236685 590.939406 
C 363.867351 604.869684 399.914962 612.04 436.316532 612.04 
C 472.718103 612.04 508.765714 604.869684 542.39638 590.939406 
C 576.027046 577.009128 606.586735 556.589797 632.326532 530.85 
C 658.066329 505.110202 678.485661 474.550513 692.415939 440.919847 
C 706.346217 407.289182 713.516532 371.24157 713.516532 334.84 
" clip-path="url(#pdb5e3328a3)" style="fill: none; stroke: #b0b0b0; stroke-width: 0.8; stroke-linecap: square"/>
     </g>
     <g id="text_21">
      <!-- 100 -->
      <g transform="translate(692.415939 226.680465) scale(0.1 -0.1)">
       <use xlink:href="#DejaVuSans-31"/>
       <use xlink:href="#DejaVuSans-30" transform="translate(63.623047 0)"/>
       <use xlink:href="#DejaVuSans-30" transform="translate(127.246094 0)"/>
      </g>
     </g>
    </g>
   </g>
   <g id="line2d_22">
    <path d="M 533.475052 334.84 
L 585.260847 273.145245 
L 586.862221 184.294311 
L 493.827419 195.996439 
L 436.316532 225.133686 
L 409.018183 268.935954 
L 391.131725 289.655193 
L 336.688008 293.572514 
L 423.885005 334.84 
L 195.126631 434.744128 
L 293.191793 477.96474 
L 366.065172 504.441787 
L 436.316532 445.502273 
L 478.132309 435.792214 
L 551.546167 450.069635 
L 458.62006 344.078423 
L 533.475052 334.84 
" clip-path="url(#pdb5e3328a3)" style="fill: none; stroke: #1f77b4; stroke-width: 2; stroke-linecap: square"/>
   </g>
   <g id="line2d_23">
    <path d="M 586.433367 334.84 
L 575.006403 277.392774 
L 542.465164 228.691368 
L 493.763758 196.150129 
L 436.316532 184.723165 
L 378.869307 196.150129 
L 330.167901 228.691368 
L 297.626661 277.392774 
L 286.199698 334.84 
L 297.626661 392.287226 
L 330.167901 440.988632 
L 378.869307 473.529871 
L 436.316532 484.956835 
L 493.763758 473.529871 
L 542.465164 440.988632 
L 575.006403 392.287226 
L 586.433367 334.84 
" clip-path="url(#pdb5e3328a3)" style="fill: none; stroke-dasharray: 3.7,1.6; stroke-dashoffset: 0; stroke: #008000"/>
   </g>
   <g id="line2d_24">
    <path d="M 605.561289 334.84 
L 592.678299 270.072836 
L 555.990648 215.165885 
L 501.083697 178.478233 
L 436.316532 165.595243 
L 371.549368 178.478233 
L 316.642417 215.165885 
L 279.954765 270.072836 
L 267.071775 334.84 
L 279.954765 399.607164 
L 316.642417 454.514115 
L 371.549368 491.201767 
L 436.316532 504.084757 
L 501.083697 491.201767 
L 555.990648 454.514115 
L 592.678299 399.607164 
L 605.561289 334.84 
" clip-path="url(#pdb5e3328a3)" style="fill: none; stroke-dasharray: 3.7,1.6; stroke-dashoffset: 0; stroke: #ffff00"/>
   </g>
   <g id="line2d_25">
    <path d="M 616.750407 334.84 
L 603.015696 265.790946 
L 563.902548 207.253984 
L 505.365587 168.140837 
L 436.316532 154.406126 
L 367.267478 168.140837 
L 308.730516 207.253984 
L 269.617369 265.790946 
L 255.882658 334.84 
L 269.617369 403.889054 
L 308.730516 462.426016 
L 367.267478 501.539163 
L 436.316532 515.273874 
L 505.365587 501.539163 
L 563.902548 462.426016 
L 603.015696 403.889054 
L 616.750407 334.84 
" clip-path="url(#pdb5e3328a3)" style="fill: none; stroke-dasharray: 3.7,1.6; stroke-dashoffset: 0; stroke: #ff0000"/>
   </g>
   <g id="patch_4">
    <path d="M 713.516532 334.84 
C 713.516532 298.43843 706.346217 262.390818 692.415939 228.760153 
C 678.485661 195.129487 658.066329 164.569798 632.326532 138.83 
C 606.586735 113.090203 576.027046 92.670872 542.39638 78.740594 
C 508.765714 64.810316 472.718103 57.64 436.316532 57.64 
C 399.914962 57.64 363.867351 64.810316 330.236685 78.740594 
C 296.606019 92.670872 266.04633 113.090203 240.306533 138.83 
C 214.566735 164.569798 194.147404 195.129487 180.217126 228.760153 
C 166.286848 262.390818 159.116532 298.43843 159.116532 334.84 
C 159.116532 371.24157 166.286848 407.289182 180.217126 440.919847 
C 194.147404 474.550513 214.566735 505.110202 240.306533 530.85 
C 266.04633 556.589797 296.606019 577.009128 330.236685 590.939406 
C 363.867351 604.869684 399.914962 612.04 436.316532 612.04 
C 472.718103 612.04 508.765714 604.869684 542.39638 590.939406 
C 576.027046 577.009128 606.586735 556.589797 632.326532 530.85 
C 658.066329 505.110202 678.485661 474.550513 692.415939 440.919847 
C 706.346217 407.289182 713.516532 371.24157 713.516532 334.84 
" style="fill: none; stroke: #000000; stroke-width: 0.8; stroke-linejoin: miter; stroke-linecap: square"/>
   </g>
   <g id="text_22">
    <!-- Log-Scaled Spider Plot: Results Overview -->
    <g transform="translate(313.357782 49.144375) scale(0.12 -0.12)">
     <defs>
      <path id="DejaVuSans-6f" d="M 1959 3097 
Q 1497 3097 1228 2736 
Q 959 2375 959 1747 
Q 959 1119 1226 758 
Q 1494 397 1959 397 
Q 2419 397 2687 759 
Q 2956 1122 2956 1747 
Q 2956 2369 2687 2733 
Q 2419 3097 1959 3097 
z
M 1959 3584 
Q 2709 3584 3137 3096 
Q 3566 2609 3566 1747 
Q 3566 888 3137 398 
Q 2709 -91 1959 -91 
Q 1206 -91 779 398 
Q 353 888 353 1747 
Q 353 2609 779 3096 
Q 1206 3584 1959 3584 
z
" transform="scale(0.015625)"/>
      <path id="DejaVuSans-67" d="M 2906 1791 
Q 2906 2416 2648 2759 
Q 2391 3103 1925 3103 
Q 1463 3103 1205 2759 
Q 947 2416 947 1791 
Q 947 1169 1205 825 
Q 1463 481 1925 481 
Q 2391 481 2648 825 
Q 2906 1169 2906 1791 
z
M 3481 434 
Q 3481 -459 3084 -895 
Q 2688 -1331 1869 -1331 
Q 1566 -1331 1297 -1286 
Q 1028 -1241 775 -1147 
L 775 -588 
Q 1028 -725 1275 -790 
Q 1522 -856 1778 -856 
Q 2344 -856 2625 -561 
Q 2906 -266 2906 331 
L 2906 616 
Q 2728 306 2450 153 
Q 2172 0 1784 0 
Q 1141 0 747 490 
Q 353 981 353 1791 
Q 353 2603 747 3093 
Q 1141 3584 1784 3584 
Q 2172 3584 2450 3431 
Q 2728 3278 2906 2969 
L 2906 3500 
L 3481 3500 
L 3481 434 
z
" transform="scale(0.015625)"/>
      <path id="DejaVuSans-2d" d="M 313 2009 
L 1997 2009 
L 1997 1497 
L 313 1497 
L 313 2009 
z
" transform="scale(0.015625)"/>
      <path id="DejaVuSans-63" d="M 3122 3366 
L 3122 2828 
Q 2878 2963 2633 3030 
Q 2388 3097 2138 3097 
Q 1578 3097 1268 2742 
Q 959 2388 959 1747 
Q 959 1106 1268 751 
Q 1578 397 2138 397 
Q 2388 397 2633 464 
Q 2878 531 3122 666 
L 3122 134 
Q 2881 22 2623 -34 
Q 2366 -91 2075 -91 
Q 1284 -91 818 406 
Q 353 903 353 1747 
Q 353 2603 823 3093 
Q 1294 3584 2113 3584 
Q 2378 3584 2631 3529 
Q 2884 3475 3122 3366 
z
" transform="scale(0.015625)"/>
      <path id="DejaVuSans-61" d="M 2194 1759 
Q 1497 1759 1228 1600 
Q 959 1441 959 1056 
Q 959 750 1161 570 
Q 1363 391 1709 391 
Q 2188 391 2477 730 
Q 2766 1069 2766 1631 
L 2766 1759 
L 2194 1759 
z
M 3341 1997 
L 3341 0 
L 2766 0 
L 2766 531 
Q 2569 213 2275 61 
Q 1981 -91 1556 -91 
Q 1019 -91 701 211 
Q 384 513 384 1019 
Q 384 1609 779 1909 
Q 1175 2209 1959 2209 
L 2766 2209 
L 2766 2266 
Q 2766 2663 2505 2880 
Q 2244 3097 1772 3097 
Q 1472 3097 1187 3025 
Q 903 2953 641 2809 
L 641 3341 
Q 956 3463 1253 3523 
Q 1550 3584 1831 3584 
Q 2591 3584 2966 3190 
Q 3341 2797 3341 1997 
z
" transform="scale(0.015625)"/>
      <path id="DejaVuSans-6c" d="M 603 4863 
L 1178 4863 
L 1178 0 
L 603 0 
L 603 4863 
z
" transform="scale(0.015625)"/>
      <path id="DejaVuSans-65" d="M 3597 1894 
L 3597 1613 
L 953 1613 
Q 991 1019 1311 708 
Q 1631 397 2203 397 
Q 2534 397 2845 478 
Q 3156 559 3463 722 
L 3463 178 
Q 3153 47 2828 -22 
Q 2503 -91 2169 -91 
Q 1331 -91 842 396 
Q 353 884 353 1716 
Q 353 2575 817 3079 
Q 1281 3584 2069 3584 
Q 2775 3584 3186 3129 
Q 3597 2675 3597 1894 
z
M 3022 2063 
Q 3016 2534 2758 2815 
Q 2500 3097 2075 3097 
Q 1594 3097 1305 2825 
Q 1016 2553 972 2059 
L 3022 2063 
z
" transform="scale(0.015625)"/>
      <path id="DejaVuSans-64" d="M 2906 2969 
L 2906 4863 
L 3481 4863 
L 3481 0 
L 2906 0 
L 2906 525 
Q 2725 213 2448 61 
Q 2172 -91 1784 -91 
Q 1150 -91 751 415 
Q 353 922 353 1747 
Q 353 2572 751 3078 
Q 1150 3584 1784 3584 
Q 2172 3584 2448 3432 
Q 2725 3281 2906 2969 
z
M 947 1747 
Q 947 1113 1208 752 
Q 1469 391 1925 391 
Q 2381 391 2643 752 
Q 2906 1113 2906 1747 
Q 2906 2381 2643 2742 
Q 2381 3103 1925 3103 
Q 1469 3103 1208 2742 
Q 947 2381 947 1747 
z
" transform="scale(0.015625)"/>
      <path id="DejaVuSans-20" transform="scale(0.015625)"/>
      <path id="DejaVuSans-70" d="M 1159 525 
L 1159 -1331 
L 581 -1331 
L 581 3500 
L 1159 3500 
L 1159 2969 
Q 1341 3281 1617 3432 
Q 1894 3584 2278 3584 
Q 2916 3584 3314 3078 
Q 3713 2572 3713 1747 
Q 3713 922 3314 415 
Q 2916 -91 2278 -91 
Q 1894 -91 1617 61 
Q 1341 213 1159 525 
z
M 3116 1747 
Q 3116 2381 2855 2742 
Q 2594 3103 2138 3103 
Q 1681 3103 1420 2742 
Q 1159 2381 1159 1747 
Q 1159 1113 1420 752 
Q 1681 391 2138 391 
Q 2594 391 2855 752 
Q 3116 1113 3116 1747 
z
" transform="scale(0.015625)"/>
      <path id="DejaVuSans-69" d="M 603 3500 
L 1178 3500 
L 1178 0 
L 603 0 
L 603 3500 
z
M 603 4863 
L 1178 4863 
L 1178 4134 
L 603 4134 
L 603 4863 
z
" transform="scale(0.015625)"/>
      <path id="DejaVuSans-72" d="M 2631 2963 
Q 2534 3019 2420 3045 
Q 2306 3072 2169 3072 
Q 1681 3072 1420 2755 
Q 1159 2438 1159 1844 
L 1159 0 
L 581 0 
L 581 3500 
L 1159 3500 
L 1159 2956 
Q 1341 3275 1631 3429 
Q 1922 3584 2338 3584 
Q 2397 3584 2469 3576 
Q 2541 3569 2628 3553 
L 2631 2963 
z
" transform="scale(0.015625)"/>
      <path id="DejaVuSans-74" d="M 1172 4494 
L 1172 3500 
L 2356 3500 
L 2356 3053 
L 1172 3053 
L 1172 1153 
Q 1172 725 1289 603 
Q 1406 481 1766 481 
L 2356 481 
L 2356 0 
L 1766 0 
Q 1100 0 847 248 
Q 594 497 594 1153 
L 594 3053 
L 172 3053 
L 172 3500 
L 594 3500 
L 594 4494 
L 1172 4494 
z
" transform="scale(0.015625)"/>
      <path id="DejaVuSans-3a" d="M 750 794 
L 1409 794 
L 1409 0 
L 750 0 
L 750 794 
z
M 750 3309 
L 1409 3309 
L 1409 2516 
L 750 2516 
L 750 3309 
z
" transform="scale(0.015625)"/>
      <path id="DejaVuSans-73" d="M 2834 3397 
L 2834 2853 
Q 2591 2978 2328 3040 
Q 2066 3103 1784 3103 
Q 1356 3103 1142 2972 
Q 928 2841 928 2578 
Q 928 2378 1081 2264 
Q 1234 2150 1697 2047 
L 1894 2003 
Q 2506 1872 2764 1633 
Q 3022 1394 3022 966 
Q 3022 478 2636 193 
Q 2250 -91 1575 -91 
Q 1294 -91 989 -36 
Q 684 19 347 128 
L 347 722 
Q 666 556 975 473 
Q 1284 391 1588 391 
Q 1994 391 2212 530 
Q 2431 669 2431 922 
Q 2431 1156 2273 1281 
Q 2116 1406 1581 1522 
L 1381 1569 
Q 847 1681 609 1914 
Q 372 2147 372 2553 
Q 372 3047 722 3315 
Q 1072 3584 1716 3584 
Q 2034 3584 2315 3537 
Q 2597 3491 2834 3397 
z
" transform="scale(0.015625)"/>
      <path id="DejaVuSans-75" d="M 544 1381 
L 544 3500 
L 1119 3500 
L 1119 1403 
Q 1119 906 1312 657 
Q 1506 409 1894 409 
Q 2359 409 2629 706 
Q 2900 1003 2900 1516 
L 2900 3500 
L 3475 3500 
L 3475 0 
L 2900 0 
L 2900 538 
Q 2691 219 2414 64 
Q 2138 -91 1772 -91 
Q 1169 -91 856 284 
Q 544 659 544 1381 
z
M 1991 3584 
L 1991 3584 
z
" transform="scale(0.015625)"/>
      <path id="DejaVuSans-76" d="M 191 3500 
L 800 3500 
L 1894 563 
L 2988 3500 
L 3597 3500 
L 2284 0 
L 1503 0 
L 191 3500 
z
" transform="scale(0.015625)"/>
      <path id="DejaVuSans-77" d="M 269 3500 
L 844 3500 
L 1563 769 
L 2278 3500 
L 2956 3500 
L 3675 769 
L 4391 3500 
L 4966 3500 
L 4050 0 
L 3372 0 
L 2619 2869 
L 1863 0 
L 1184 0 
L 269 3500 
z
" transform="scale(0.015625)"/>
     </defs>
     <use xlink:href="#DejaVuSans-4c"/>
     <use xlink:href="#DejaVuSans-6f" transform="translate(53.962891 0)"/>
     <use xlink:href="#DejaVuSans-67" transform="translate(115.144531 0)"/>
     <use xlink:href="#DejaVuSans-2d" transform="translate(178.621094 0)"/>
     <use xlink:href="#DejaVuSans-53" transform="translate(214.705078 0)"/>
     <use xlink:href="#DejaVuSans-63" transform="translate(278.181641 0)"/>
     <use xlink:href="#DejaVuSans-61" transform="translate(333.162109 0)"/>
     <use xlink:href="#DejaVuSans-6c" transform="translate(394.441406 0)"/>
     <use xlink:href="#DejaVuSans-65" transform="translate(422.224609 0)"/>
     <use xlink:href="#DejaVuSans-64" transform="translate(483.748047 0)"/>
     <use xlink:href="#DejaVuSans-20" transform="translate(547.224609 0)"/>
     <use xlink:href="#DejaVuSans-53" transform="translate(579.011719 0)"/>
     <use xlink:href="#DejaVuSans-70" transform="translate(642.488281 0)"/>
     <use xlink:href="#DejaVuSans-69" transform="translate(705.964844 0)"/>
     <use xlink:href="#DejaVuSans-64" transform="translate(733.748047 0)"/>
     <use xlink:href="#DejaVuSans-65" transform="translate(797.224609 0)"/>
     <use xlink:href="#DejaVuSans-72" transform="translate(858.748047 0)"/>
     <use xlink:href="#DejaVuSans-20" transform="translate(899.861328 0)"/>
     <use xlink:href="#DejaVuSans-50" transform="translate(931.648438 0)"/>
     <use xlink:href="#DejaVuSans-6c" transform="translate(991.951172 0)"/>
     <use xlink:href="#DejaVuSans-6f" transform="translate(1019.734375 0)"/>
     <use xlink:href="#DejaVuSans-74" transform="translate(1080.916016 0)"/>
     <use xlink:href="#DejaVuSans-3a" transform="translate(1120.125 0)"/>
     <use xlink:href="#DejaVuSans-20" transform="translate(1153.816406 0)"/>
     <use xlink:href="#DejaVuSans-52" transform="translate(1185.603516 0)"/>
     <use xlink:href="#DejaVuSans-65" transform="translate(1250.585938 0)"/>
     <use xlink:href="#DejaVuSans-73" transform="translate(1312.109375 0)"/>
     <use xlink:href="#DejaVuSans-75" transform="translate(1364.208984 0)"/>
     <use xlink:href="#DejaVuSans-6c" transform="translate(1427.587891 0)"/>
     <use xlink:href="#DejaVuSans-74" transform="translate(1455.371094 0)"/>
     <use xlink:href="#DejaVuSans-73" transform="translate(1494.580078 0)"/>
     <use xlink:href="#DejaVuSans-20" transform="translate(1546.679688 0)"/>
     <use xlink:href="#DejaVuSans-4f" transform="translate(1578.466797 0)"/>
     <use xlink:href="#DejaVuSans-76" transform="translate(1657.177734 0)"/>
     <use xlink:href="#DejaVuSans-65" transform="translate(1716.357422 0)"/>
     <use xlink:href="#DejaVuSans-72" transform="translate(1777.880859 0)"/>
     <use xlink:href="#DejaVuSans-76" transform="translate(1818.994141 0)"/>
     <use xlink:href="#DejaVuSans-69" transform="translate(1878.173828 0)"/>
     <use xlink:href="#DejaVuSans-65" transform="translate(1905.957031 0)"/>
     <use xlink:href="#DejaVuSans-77" transform="translate(1967.480469 0)"/>
    </g>
   </g>
   <g id="legend_1">
    <g id="patch_5">
     <path d="M 765.217782 68.9125 
L 872.836532 68.9125 
Q 874.836532 68.9125 874.836532 66.9125 
L 874.836532 9.2 
Q 874.836532 7.2 872.836532 7.2 
L 765.217782 7.2 
Q 763.217782 7.2 763.217782 9.2 
L 763.217782 66.9125 
Q 763.217782 68.9125 765.217782 68.9125 
z
" style="fill: #ffffff; opacity: 0.8; stroke: #cccccc; stroke-linejoin: miter"/>
    </g>
    <g id="line2d_26">
     <path d="M 767.217782 15.298437 
L 777.217782 15.298437 
L 787.217782 15.298437 
" style="fill: none; stroke: #1f77b4; stroke-width: 2; stroke-linecap: square"/>
    </g>
    <g id="text_23">
     <!-- Results -->
     <g transform="translate(795.217782 18.798437) scale(0.1 -0.1)">
      <use xlink:href="#DejaVuSans-52"/>
      <use xlink:href="#DejaVuSans-65" transform="translate(64.982422 0)"/>
      <use xlink:href="#DejaVuSans-73" transform="translate(126.505859 0)"/>
      <use xlink:href="#DejaVuSans-75" transform="translate(178.605469 0)"/>
      <use xlink:href="#DejaVuSans-6c" transform="translate(241.984375 0)"/>
      <use xlink:href="#DejaVuSans-74" transform="translate(269.767578 0)"/>
      <use xlink:href="#DejaVuSans-73" transform="translate(308.976562 0)"/>
     </g>
    </g>
    <g id="line2d_27">
     <path d="M 767.217782 29.976562 
L 777.217782 29.976562 
L 787.217782 29.976562 
" style="fill: none; stroke-dasharray: 3.7,1.6; stroke-dashoffset: 0; stroke: #008000"/>
    </g>
    <g id="text_24">
     <!-- Safe zone -->
     <g transform="translate(795.217782 33.476562) scale(0.1 -0.1)">
      <defs>
       <path id="DejaVuSans-66" d="M 2375 4863 
L 2375 4384 
L 1825 4384 
Q 1516 4384 1395 4259 
Q 1275 4134 1275 3809 
L 1275 3500 
L 2222 3500 
L 2222 3053 
L 1275 3053 
L 1275 0 
L 697 0 
L 697 3053 
L 147 3053 
L 147 3500 
L 697 3500 
L 697 3744 
Q 697 4328 969 4595 
Q 1241 4863 1831 4863 
L 2375 4863 
z
" transform="scale(0.015625)"/>
       <path id="DejaVuSans-7a" d="M 353 3500 
L 3084 3500 
L 3084 2975 
L 922 459 
L 3084 459 
L 3084 0 
L 275 0 
L 275 525 
L 2438 3041 
L 353 3041 
L 353 3500 
z
" transform="scale(0.015625)"/>
       <path id="DejaVuSans-6e" d="M 3513 2113 
L 3513 0 
L 2938 0 
L 2938 2094 
Q 2938 2591 2744 2837 
Q 2550 3084 2163 3084 
Q 1697 3084 1428 2787 
Q 1159 2491 1159 1978 
L 1159 0 
L 581 0 
L 581 3500 
L 1159 3500 
L 1159 2956 
Q 1366 3272 1645 3428 
Q 1925 3584 2291 3584 
Q 2894 3584 3203 3211 
Q 3513 2838 3513 2113 
z
" transform="scale(0.015625)"/>
      </defs>
      <use xlink:href="#DejaVuSans-53"/>
      <use xlink:href="#DejaVuSans-61" transform="translate(63.476562 0)"/>
      <use xlink:href="#DejaVuSans-66" transform="translate(124.755859 0)"/>
      <use xlink:href="#DejaVuSans-65" transform="translate(159.960938 0)"/>
      <use xlink:href="#DejaVuSans-20" transform="translate(221.484375 0)"/>
      <use xlink:href="#DejaVuSans-7a" transform="translate(253.271484 0)"/>
      <use xlink:href="#DejaVuSans-6f" transform="translate(305.761719 0)"/>
      <use xlink:href="#DejaVuSans-6e" transform="translate(366.943359 0)"/>
      <use xlink:href="#DejaVuSans-65" transform="translate(430.322266 0)"/>
     </g>
    </g>
    <g id="line2d_28">
     <path d="M 767.217782 44.654688 
L 777.217782 44.654688 
L 787.217782 44.654688 
" style="fill: none; stroke-dasharray: 3.7,1.6; stroke-dashoffset: 0; stroke: #ffff00"/>
    </g>
    <g id="text_25">
     <!-- Uncertain zone -->
     <g transform="translate(795.217782 48.154688) scale(0.1 -0.1)">
      <use xlink:href="#DejaVuSans-55"/>
      <use xlink:href="#DejaVuSans-6e" transform="translate(73.193359 0)"/>
      <use xlink:href="#DejaVuSans-63" transform="translate(136.572266 0)"/>
      <use xlink:href="#DejaVuSans-65" transform="translate(191.552734 0)"/>
      <use xlink:href="#DejaVuSans-72" transform="translate(253.076172 0)"/>
      <use xlink:href="#DejaVuSans-74" transform="translate(294.189453 0)"/>
      <use xlink:href="#DejaVuSans-61" transform="translate(333.398438 0)"/>
      <use xlink:href="#DejaVuSans-69" transform="translate(394.677734 0)"/>
      <use xlink:href="#DejaVuSans-6e" transform="translate(422.460938 0)"/>
      <use xlink:href="#DejaVuSans-20" transform="translate(485.839844 0)"/>
      <use xlink:href="#DejaVuSans-7a" transform="translate(517.626953 0)"/>
      <use xlink:href="#DejaVuSans-6f" transform="translate(570.117188 0)"/>
      <use xlink:href="#DejaVuSans-6e" transform="translate(631.298828 0)"/>
      <use xlink:href="#DejaVuSans-65" transform="translate(694.677734 0)"/>
     </g>
    </g>
    <g id="line2d_29">
     <path d="M 767.217782 59.332812 
L 777.217782 59.332812 
L 787.217782 59.332812 
" style="fill: none; stroke-dasharray: 3.7,1.6; stroke-dashoffset: 0; stroke: #ff0000"/>
    </g>
    <g id="text_26">
     <!-- High risk zone -->
     <g transform="translate(795.217782 62.832812) scale(0.1 -0.1)">
      <defs>
       <path id="DejaVuSans-68" d="M 3513 2113 
L 3513 0 
L 2938 0 
L 2938 2094 
Q 2938 2591 2744 2837 
Q 2550 3084 2163 3084 
Q 1697 3084 1428 2787 
Q 1159 2491 1159 1978 
L 1159 0 
L 581 0 
L 581 4863 
L 1159 4863 
L 1159 2956 
Q 1366 3272 1645 3428 
Q 1925 3584 2291 3584 
Q 2894 3584 3203 3211 
Q 3513 2838 3513 2113 
z
" transform="scale(0.015625)"/>
       <path id="DejaVuSans-6b" d="M 581 4863 
L 1159 4863 
L 1159 1991 
L 2875 3500 
L 3609 3500 
L 1753 1863 
L 3688 0 
L 2938 0 
L 1159 1709 
L 1159 0 
L 581 0 
L 581 4863 
z
" transform="scale(0.015625)"/>
      </defs>
      <use xlink:href="#DejaVuSans-48"/>
      <use xlink:href="#DejaVuSans-69" transform="translate(75.195312 0)"/>
      <use xlink:href="#DejaVuSans-67" transform="translate(102.978516 0)"/>
      <use xlink:href="#DejaVuSans-68" transform="translate(166.455078 0)"/>
      <use xlink:href="#DejaVuSans-20" transform="translate(229.833984 0)"/>
      <use xlink:href="#DejaVuSans-72" transform="translate(261.621094 0)"/>
      <use xlink:href="#DejaVuSans-69" transform="translate(302.734375 0)"/>
      <use xlink:href="#DejaVuSans-73" transform="translate(330.517578 0)"/>
      <use xlink:href="#DejaVuSans-6b" transform="translate(382.617188 0)"/>
      <use xlink:href="#DejaVuSans-20" transform="translate(440.527344 0)"/>
      <use xlink:href="#DejaVuSans-7a" transform="translate(472.314453 0)"/>
      <use xlink:href="#DejaVuSans-6f" transform="translate(524.804688 0)"/>
      <use xlink:href="#DejaVuSans-6e" transform="translate(585.986328 0)"/>
      <use xlink:href="#DejaVuSans-65" transform="translate(649.365234 0)"/>
     </g>
    </g>
   </g>
  </g>
 </g>
 <defs>
  <clipPath id="pdb5e3328a3">
   <path d="M 713.516532 334.84 
C 713.516532 298.43843 706.346217 262.390818 692.415939 228.760153 
C 678.485661 195.129487 658.066329 164.569798 632.326532 138.83 
C 606.586735 113.090203 576.027046 92.670872 542.39638 78.740594 
C 508.765714 64.810316 472.718103 57.64 436.316532 57.64 
C 399.914962 57.64 363.867351 64.810316 330.236685 78.740594 
C 296.606019 92.670872 266.04633 113.090203 240.306533 138.83 
C 214.566735 164.569798 194.147404 195.129487 180.217126 228.760153 
C 166.286848 262.390818 159.116532 298.43843 159.116532 334.84 
C 159.116532 371.24157 166.286848 407.289182 180.217126 440.919847 
C 194.147404 474.550513 214.566735 505.110202 240.306533 530.85 
C 266.04633 556.589797 296.606019 577.009128 330.236685 590.939406 
C 363.867351 604.869684 399.914962 612.04 436.316532 612.04 
C 472.718103 612.04 508.765714 604.869684 542.39638 590.939406 
C 576.027046 577.009128 606.586735 556.589797 632.326532 530.85 
C 658.066329 505.110202 678.485661 474.550513 692.415939 440.919847 
C 706.346217 407.289182 713.516532 371.24157 713.516532 334.84 
M 436.316532 334.84 
C 436.316532 334.84 436.316532 334.84 436.316532 334.84 
C 436.316532 334.84 436.316532 334.84 436.316532 334.84 
C 436.316532 334.84 436.316532 334.84 436.316532 334.84 
C 436.316532 334.84 436.316532 334.84 436.316532 334.84 
C 436.316532 334.84 436.316532 334.84 436.316532 334.84 
C 436.316532 334.84 436.316532 334.84 436.316532 334.84 
C 436.316532 334.84 436.316532 334.84 436.316532 334.84 
C 436.316532 334.84 436.316532 334.84 436.316532 334.84 
C 436.316532 334.84 436.316532 334.84 436.316532 334.84 
C 436.316532 334.84 436.316532 334.84 436.316532 334.84 
C 436.316532 334.84 436.316532 334.84 436.316532 334.84 
C 436.316532 334.84 436.316532 334.84 436.316532 334.84 
C 436.316532 334.84 436.316532 334.84 436.316532 334.84 
C 436.316532 334.84 436.316532 334.84 436.316532 334.84 
C 436.316532 334.84 436.316532 334.84 436.316532 334.84 
C 436.316532 334.84 436.316532 334.84 436.316532 334.84 
z
"/>
  </clipPath>
 </defs>
</svg>
